# xmcd CD database file
#
# Track frame offsets:
#	150
#	13629
#	32738
#	48227
#	60576
#	80582
#	96295
#	116631
#	135955
#	155224
#	166408
#	201177
#	213303
#	229564
#	245827
#	259653
#	272639
#	299900
#	312513
#
# Disc length: 4411 seconds
#
# Revision: 0
# Processed by: cddbd v1.5.2PL0 Copyright (c) Steve Scherf et al.
# Submitted via: CDex 1.70beta2
#
DISCID=18113913
DTITLE=Various Artist - The Definitive Gershwin
DYEAR=2006
DGENRE=Jazz
TTITLE0=I Got Rhythm (Ernestine Anderson)
TTITLE1=They Can't Take That Away from Me (Billie Holiday)
TTITLE2=Somebody Loves Me (Oscar Peterson)
TTITLE3=Fascinating Rhythm (Fred Astaire)
TTITLE4=How Long Has This Been Going On (Diane Schur)
TTITLE5=Summertime (Helen Merrill)
TTITLE6=It Ain't Necessarily So (Art Farmer-Benny Golson Jazztet)
TTITLE7=My Man's Gone Now (Carmen McRae)
TTITLE8=Let's Call the Whole Thing Off (Oscar Peterson)
TTITLE9=But Not For Me (Dinah Washington-Qunicy Jones
TTITLE10=The Man I Love (Betty Carter)
TTITLE11=S'Wonderful (Joe Williams-Count Basie)
TTITLE12=Our Love is Here to Stay (Shirley Horn)
TTITLE13=Nice Work if You Can Get It (Ella Fitzgerald)
TTITLE14=Bidin' My Time (Sarah Vaughan)
TTITLE15=Embraceable You (Judy Garland)
TTITLE16=Someone to Watch Over Me (Blossom Dearie)
TTITLE17=Soon (Ellis Larkins-Ella Fitzgerald)
TTITLE18=I've Got a Crush on You (Bill Henderson-Oscar Peterson)
EXTD=YEAR: 2006
EXTT0=
EXTT1=
EXTT2=
EXTT3=
EXTT4=
EXTT5=
EXTT6=
EXTT7=
EXTT8=
EXTT9=
EXTT10=
EXTT11=
EXTT12=
EXTT13=
EXTT14=
EXTT15=
EXTT16=
EXTT17=
EXTT18=
PLAYORDER=
